<svg xmlns="http://www.w3.org/2000/svg" viewBox="0 0 32 32">
  <path fill="#ffa000" d="m5.8 24.6.17-.237 8.02-15.214.017-.161-3.535-6.64a.656.656 0 0 0-1.227.207Z"/>
  <path fill="#f57f17" d="m5.9 24.42.128-.25 7.937-15.056-3.526-6.666a.6.6 0 0 0-1.133.206Z"/>
  <path fill="#ffca28" d="m16.584 14.01 2.632-2.7-2.632-5.006a.654.654 0 0 0-1.245-.006l-1.357 2.61-.047.094.001.003 2.648 5.005Z"/>
  <path fill="#ffa000" d="m16.537 13.9 2.485-2.547-2.485-4.726a.6.6 0 0 0-1.144-.006l-1.356 2.608 2.5 4.671Z"/>
  <path fill="#ffc107" d="m5.802 24.601.077-.078.279-.306 10.26-10.26.13-.133L13.9 8.818l-.057-.012-.477.934Z"/>
  <path fill="#ffa000" d="m16.912 29.756 9.37-5.281-2.864-17.615a.635.635 0 0 0-1.095-.375L5.8 24.6l9.233 5.155a1.927 1.927 0 0 0 1.878 0"/>
  <path fill="#ffc107" d="m26.115 24.272-2.863-17.615a.6.6 0 0 0-1.035-.353L5.9 24.415l8.984 5.012a1.858 1.858 0 0 0 1.811 0Z"/>
</svg>
