<svg xmlns="http://www.w3.org/2000/svg" viewBox="0 0 388.12 264.29">
  <path fill="#00758f" d="M193.4 116.8c-2.7 0-4.3 1-5 2.1v-1.9h-1.9c.4 6 .4 11.1.4 18.2h1.5v-12.8c0-2.8 2.3-5 5-5 .8 0 1.5.2 2.3.4v-1.5c-.8-.4-1.5-.4-2.3-.4zm52.5-.2c-1.7 0-3.2.4-4.8 1l-.8.4v1.7c1.5-.8 3.2-1.3 4.8-1.3 1 0 1.9.2 2.7.6.8.4 1.5 1 1.9 1.7.4.8.6 1.5.6 2.3v1.7c-1-.4-3.1-1-4.6-1-3.1 0-4.8 1.5-4.8 4.4 0 1.3.4 2.3 1.3 3.1.8.8 1.9 1.1 3.4 1.1 1.7 0 3.1-.6 4.6-1.9v1.7h1.5v-9.2c0-1.3-.2-2.3-.8-3.2-.6-.8-1.3-1.5-2.3-1.9-.6-.4-1.7-.6-2.7-.6zm21.7 0c-1.5 0-2.9.4-4.2 1.1l-.8.4v1.7c1.3-.8 2.7-1.3 4.2-1.3 1 0 1.9.2 2.7.6.8.4 1.5 1 1.9 1.7.4.8.6 1.5.6 2.3v1.7c-.8-.4-3.1-1-4.6-1-3.1 0-4.8 1.5-4.8 4.4 0 1.3.4 2.3 1.3 3.1.8.8 1.9 1.1 3.4 1.1 1.7 0 3.1-.6 4.6-1.9v1.7h1.5v-9.2c0-1.3-.2-2.3-.8-3.2-.6-.8-1.3-1.5-2.3-1.9-.8-.4-1.7-.6-2.7-.6zm-62.9.2h-1.5v13c0 1.1-.2 1.9-.6 2.7-.4.6-1 1.1-1.7 1.5-.8.4-1.5.4-2.3.4-1.1 0-1.9-.2-2.7-.8-.6-.6-1-1.3-1-2.3h-1.5c0 1.3.6 2.5 1.5 3.4 1 .8 2.3 1.3 3.8 1.3 2.9 0 5.2-1.7 5.8-4.4.2-.6.2-1.3.2-1.9v-13zm-20.5 0c-.4 1.5-.8 2.9-1.3 4.4l-5.2 14.9h1.7l1.7-5h7.5l1.7 5h1.7l-5.2-14.9c-.4-1.5-.8-2.9-1.3-4.4h-1.3zm-9.8 0h-1.5v19.3h1.5v-19.3zm-23.8 0h-8.6v1.5h3.6v17.8h1.5v-17.8h3.6v-1.5zm152.3 0h-1.5v19.3h1.5v-19.3zm-43.7 1.3c1.3 0 2.5.4 3.6 1.1 1.1.8 1.9 1.7 2.5 2.9.6 1.3.8 2.7.8 4.2 0 1.5-.2 2.9-.8 4.2-.6 1.3-1.5 2.3-2.5 2.9-1.1.8-2.3 1.1-3.6 1.1-1.3 0-2.5-.4-3.6-1.1-1.1-.8-1.9-1.7-2.5-2.9-.6-1.3-.8-2.7-.8-4.2 0-1.5.2-2.9.8-4.2.6-1.3 1.5-2.3 2.5-2.9 1.1-.8 2.3-1.1 3.6-1.1zm-115.6.2l3.4 10.1h-6.9l3.4-10.1zm171.6 5.9c.6 0 1.1 0 1.7.2.6.2 1 .4 1.5.6s.8.6 1.1 1.1c.2.4.4 1 .4 1.5 0 .6-.2 1.1-.4 1.5-.2.4-.6.8-1.1 1.1s-1 .6-1.5.6c-.6.2-1.1.2-1.7.2-.6 0-1.1 0-1.7-.2-.6-.2-1-.4-1.5-.6s-.8-.6-1.1-1.1c-.2-.4-.4-1-.4-1.5 0-.6.2-1.1.4-1.5.2-.4.6-.8 1.1-1.1.4-.2 1-.4 1.5-.6.6-.2 1.1-.2 1.7-.2zm-21.7.8c1.5 0 3.4.4 4.4.8v4.4c-1.1 1-2.5 1.5-4.2 1.5-1 0-1.7-.2-2.1-.8-.4-.4-.8-1.1-.8-1.9s.2-1.3.8-1.9c.6-.8 1.1-1 1.9-1.1z"/>
</svg>
